<svg xmlns="http://www.w3.org/2000/svg" viewBox="0 0 47.5 47.5" id="computer"><defs><clipPath id="a"><path d="M0 38h38V0H0v38Z"></path></clipPath></defs><g clip-path="url(#a)" transform="matrix(1.25 0 0 -1.25 0 47.5)"><path fill="#292f33" d="M5 1S1 1 1 5v28s0 4 4 4h26c1 0 2-1 2-1l3-3s1-1 1-2V5s0-4-4-4H5Z"></path><path fill="#55acee" d="M6 18v1s0 2 2 2h21c2 0 2-2 2-2v-1H6Z"></path><path fill="#e1e8ed" d="M6 4.979V18h25V5s0-2-2-2H8C6 3 6 4.979 6 4.979M23 24h5v10h-5V24zM11 34s0 1 1 1h18c1.048 0 1-1 1-1V24s0-1-1-1H12s-1 0-1 1v10z"></path></g></svg>